<svg width="630" height="923" viewBox="0 0 630 923" fill="none" xmlns="http://www.w3.org/2000/svg">
<rect width="629.154" height="923" fill="#AB2680"/>
<rect width="5.4082" height="923" fill="url(#paint0_linear_807_0)"/>
<rect x="5.4082" width="5.4082" height="923" fill="url(#paint1_linear_807_0)"/>
<rect x="10.8164" width="9.01367" height="923" fill="url(#paint2_linear_807_0)"/>
<rect x="12.6191" width="25.2383" height="923" fill="url(#paint3_linear_807_0)"/>
<rect opacity="0.5" x="37.8574" width="9.01367" height="923" fill="url(#paint4_linear_807_0)"/>
<g style="mix-blend-mode:multiply" opacity="0.2">
<path fill-rule="evenodd" clip-rule="evenodd" d="M421.178 292.557C422.399 292.825 423.63 293.204 424.874 293.696C426.115 294.189 427.238 294.838 428.242 295.642C429.243 296.448 430.05 297.431 430.659 298.594C431.27 299.759 431.575 301.144 431.575 302.753C431.575 304.857 431.161 306.635 430.333 308.089C429.504 309.542 428.425 310.717 427.096 311.611C425.766 312.506 424.274 313.155 422.617 313.557C420.96 313.961 419.303 314.159 417.648 314.159C414.987 314.159 411.679 313.599 409.315 312.298C406.731 310.876 405.806 310.058 404.911 309.014C404.497 308.531 404.386 307.865 404.818 307.398L407.965 302.938C408.379 302.489 409.081 302.057 409.58 302.407C410.696 303.192 412.023 304.166 413.064 304.698C415.196 305.791 417.883 306.24 420.093 305.133C420.944 304.71 421.35 303.874 421.304 303.201C421.236 302.176 420.786 301.569 419.74 301.076C418.694 300.586 417.06 300.07 414.836 299.533C413.701 299.266 412.567 298.909 411.435 298.461C410.301 298.012 409.288 297.41 408.395 296.648C407.5 295.889 406.77 294.948 406.203 293.83C405.636 292.713 405.353 291.37 405.353 289.806C405.353 287.793 405.766 286.081 406.596 284.672C407.424 283.262 408.493 282.113 409.801 281.216C411.107 280.322 412.558 279.663 414.148 279.238C415.74 278.813 417.32 278.6 418.889 278.6C421.332 278.6 423.447 278.934 425.748 279.901C427.712 280.726 428.679 281.265 430.11 282.435C430.612 282.846 430.659 283.603 430.213 284.077L426.952 288.488C426.536 289.028 425.894 288.993 425.39 288.703C424.562 288.232 424.023 287.914 423.279 287.526C422.519 287.129 421.706 286.83 420.865 286.672C419.233 286.363 417.771 286.41 416.493 287.015C415.642 287.419 415.228 288.218 415.228 289.201C415.228 290.14 415.695 290.812 416.634 291.214C417.571 291.616 419.087 292.064 421.178 292.557ZM390.401 318.12C389.494 320.406 388.686 321.728 387.798 323.041C384.686 327.648 378.856 328.762 374.196 327.756C372.012 327.118 370.261 326.378 369.364 325.332C368.951 324.851 368.841 324.185 369.271 323.718L372.021 318.786C372.435 318.337 373.137 317.903 373.634 318.253C374.138 318.608 375.298 319.138 376.165 319.138C377.467 319.063 379.026 319 380.593 315.388C381.264 313.62 381.241 312.433 380.251 309.832L368.414 281.216C368.109 280.483 368.646 279.672 369.436 279.672H378.882C379.356 279.672 379.779 279.976 379.933 280.429L386.933 301.144H387.131L393.367 280.464C393.508 279.995 393.938 279.672 394.426 279.672H402.684C403.461 279.672 403.995 280.455 403.719 281.186L390.401 318.12ZM361.23 311.611C359.9 312.506 358.406 313.155 356.751 313.557C355.094 313.961 353.436 314.159 351.779 314.159C349.12 314.159 345.813 313.599 343.449 312.298C340.862 310.876 339.94 310.058 339.045 309.014C338.631 308.531 338.519 307.865 338.949 307.398L342.099 302.938C342.513 302.489 343.214 302.057 343.712 302.407C344.83 303.192 346.157 304.166 347.196 304.698C349.329 305.791 352.014 306.24 354.227 305.133C355.077 304.71 355.484 303.874 355.438 303.201C355.37 302.176 354.919 301.569 353.873 301.076C352.827 300.586 351.191 300.07 348.969 299.533C347.835 299.266 346.701 298.909 345.569 298.461C344.435 298.012 343.421 297.41 342.529 296.648C341.634 295.889 340.904 294.948 340.337 293.83C339.77 292.713 339.486 291.37 339.486 289.806C339.486 287.793 339.9 286.081 340.73 284.672C341.557 283.262 342.626 282.113 343.935 281.216C345.241 280.322 346.689 279.663 348.281 279.238C349.873 278.813 351.454 278.6 353.023 278.6C355.463 278.6 357.58 278.934 359.881 279.901C361.845 280.726 362.812 281.265 364.244 282.435C364.744 282.846 364.793 283.603 364.346 284.077L361.085 288.488C360.667 289.028 360.028 288.993 359.524 288.703C358.696 288.232 358.155 287.914 357.413 287.526C356.653 287.129 355.84 286.83 354.998 286.672C353.367 286.363 351.905 286.41 350.626 287.015C349.776 287.419 349.362 288.218 349.362 289.201C349.362 290.14 349.829 290.812 350.766 291.214C351.705 291.616 353.22 292.064 355.312 292.557C356.532 292.825 357.764 293.204 359.005 293.696C360.249 294.189 361.371 294.838 362.375 295.642C363.377 296.448 364.181 297.431 364.793 298.594C365.404 299.759 365.708 301.144 365.708 302.753C365.708 304.857 365.295 306.635 364.467 308.089C363.637 309.542 362.559 310.717 361.23 311.611ZM331.97 313.087H324.377C323.763 313.087 323.268 312.587 323.268 311.973V309.53H323.073C322.243 310.918 320.99 311.992 319.312 312.751C317.634 313.512 315.814 313.893 313.852 313.893C312.544 313.893 311.191 313.713 309.797 313.356C308.402 312.998 307.126 312.417 305.971 311.611C304.816 310.806 303.868 309.731 303.126 308.391C302.385 307.048 302.015 305.394 302.015 303.426C302.015 301.011 302.659 299.063 303.944 297.587C305.23 296.111 306.887 294.972 308.916 294.166C310.943 293.362 313.197 292.825 315.682 292.557C318.166 292.288 320.586 292.153 322.94 292.153V291.616C322.94 289.962 322.373 288.743 321.241 287.958C320.107 287.178 318.712 286.786 317.055 286.786C315.528 286.786 314.057 287.12 312.642 287.793C311.575 288.297 310.094 289.145 309.262 289.803C308.807 290.163 308.156 290.112 307.765 289.68L304.583 285.357C304.16 284.89 304.207 284.163 304.683 283.75C306.403 282.258 307.347 281.368 310.287 280.009C312.755 278.867 315.442 278.6 318.101 278.6C320.848 278.6 323.17 278.946 325.067 279.64C326.963 280.333 328.5 281.408 329.676 282.86C330.854 284.315 331.714 286.148 332.26 288.362C332.804 290.576 333.076 293.204 333.076 296.247V311.973C333.076 312.587 332.581 313.087 331.97 313.087ZM323.268 299.245C323.268 298.848 322.947 298.526 322.554 298.526H321.894C320.718 298.526 319.528 298.584 318.331 298.694C317.132 298.806 316.063 299.021 315.126 299.332C314.189 299.647 313.416 300.102 312.807 300.707C312.195 301.312 311.891 302.106 311.891 303.089C311.891 303.718 312.03 304.252 312.316 304.701C312.597 305.147 312.958 305.507 313.395 305.773C313.829 306.041 314.331 306.233 314.898 306.345C315.463 306.455 316.009 306.511 316.532 306.511C318.712 306.511 320.379 305.897 321.534 304.666C322.689 303.437 323.268 301.77 323.268 299.668V299.245ZM291.851 309.255C290.194 310.799 288.277 311.997 286.097 312.847C283.916 313.694 281.585 314.119 279.098 314.119C276.658 314.119 274.336 313.694 272.135 312.847C269.934 311.997 268.016 310.799 266.38 309.255C264.746 307.711 263.449 305.833 262.489 303.62C261.529 301.406 261.051 298.935 261.051 296.205C261.051 293.477 261.529 291.018 262.489 288.825C263.449 286.634 264.746 284.778 266.38 283.255C268.016 281.735 269.934 280.571 272.135 279.766C274.336 278.962 276.658 278.558 279.098 278.558C281.585 278.558 283.916 278.962 286.097 279.766C288.277 280.571 290.194 281.735 291.851 283.255C293.506 284.778 294.815 286.634 295.775 288.825C296.732 291.018 297.213 293.477 297.213 296.205C297.213 298.935 296.732 301.406 295.775 303.62C294.815 305.833 293.506 307.711 291.851 309.255ZM279.131 287.659C274.417 287.659 270.596 291.503 270.596 296.247C270.596 300.161 273.218 303.426 276.776 304.46C277.509 304.698 278.287 304.86 279.166 304.86C280.232 304.86 281.165 304.647 282.015 304.294C285.304 303.101 287.668 299.965 287.668 296.247C287.668 291.503 283.847 287.659 279.131 287.659ZM248.579 276.123C246.043 275.637 243.97 273.549 243.489 270.996C242.626 266.403 246.554 262.451 251.119 263.32C253.655 263.803 255.73 265.889 256.214 268.441C257.086 273.037 253.151 276.998 248.579 276.123ZM245.495 279.672H254.004C254.615 279.672 255.112 280.172 255.112 280.789V311.973C255.112 312.587 254.615 313.087 254.004 313.087H245.495C244.883 313.087 244.386 312.587 244.386 311.973V280.789C244.386 280.172 244.883 279.672 245.495 279.672Z" fill="black"/>
</g>
<g style="mix-blend-mode:multiply" opacity="0.2">
<path d="M193.56 460.763C199.998 462.401 204.705 465.515 207.681 470.104C210.656 474.693 212.144 479.855 212.144 485.591C212.144 509.3 197.077 521.154 166.942 521.154H130.585H118.98V401.846H161.91C177.113 401.846 188.88 404.659 197.212 410.286C205.544 415.858 209.71 424.134 209.71 435.115C209.71 440.96 208.438 446.149 205.895 450.684C203.353 455.218 199.241 458.577 193.56 460.763ZM149.251 426.593V451.421H161.667C168.213 451.421 172.812 450.492 175.463 448.635C178.114 446.778 179.44 443.773 179.44 439.621C179.44 434.978 178.06 431.646 175.301 429.624C172.542 427.603 168.078 426.593 161.91 426.593H149.251ZM166.942 496.489C172.136 496.489 175.923 495.424 178.303 493.294C180.738 491.109 181.955 488.35 181.955 485.017C181.955 476.277 177.357 471.907 168.159 471.907H149.251V496.489H166.942Z" fill="black"/>
<path d="M328.112 463.712C328.112 475.676 325.894 486.137 321.457 495.096C317.021 504.001 310.853 510.857 302.955 515.664C295.056 520.417 286.048 522.793 275.931 522.793C265.651 522.793 256.535 520.417 248.582 515.664C240.683 510.857 234.515 504.001 230.079 495.096C225.697 486.137 223.506 475.676 223.506 463.712V459.369C223.506 447.406 225.697 436.972 230.079 428.067C234.515 419.108 240.683 412.225 248.582 407.418C256.481 402.611 265.543 400.207 275.768 400.207C285.885 400.207 294.893 402.611 302.792 407.418C310.745 412.225 316.94 419.108 321.376 428.067C325.867 436.972 328.112 447.406 328.112 459.369V463.712ZM297.193 459.206C297.193 448.171 295.326 439.758 291.593 433.967C287.914 428.122 282.639 425.199 275.768 425.199C261.539 425.199 254.425 436.535 254.425 459.206V463.712C254.425 474.747 256.21 483.215 259.781 489.115C263.406 494.96 268.789 497.882 275.931 497.882C282.747 497.882 287.995 494.905 291.674 488.951C295.353 482.996 297.193 474.583 297.193 463.712V459.206Z" fill="black"/>
<path d="M442.863 463.712C442.863 475.676 440.644 486.137 436.208 495.096C431.772 504.001 425.604 510.857 417.705 515.664C409.806 520.417 400.798 522.793 390.681 522.793C380.402 522.793 371.285 520.417 363.332 515.664C355.434 510.857 349.266 504.001 344.83 495.096C340.447 486.137 338.256 475.676 338.256 463.712V459.369C338.256 447.406 340.447 436.972 344.83 428.067C349.266 419.108 355.434 412.225 363.332 407.418C371.231 402.611 380.293 400.207 390.519 400.207C400.636 400.207 409.644 402.611 417.543 407.418C425.496 412.225 431.69 419.108 436.127 428.067C440.617 436.972 442.863 447.406 442.863 459.369V463.712ZM411.943 459.206C411.943 448.171 410.077 439.758 406.344 433.967C402.665 428.122 397.39 425.199 390.519 425.199C376.29 425.199 369.175 436.535 369.175 459.206V463.712C369.175 474.747 370.961 483.215 374.532 489.115C378.156 494.96 383.54 497.882 390.681 497.882C397.498 497.882 402.746 494.905 406.425 488.951C410.104 482.996 411.943 474.583 411.943 463.712V459.206Z" fill="black"/>
<path d="M518.173 454.863L556.558 521.154H520.688L497.803 479.2L486.523 491.737V521.154H456.253V401.846H486.523V452.896L496.099 437.327L519.552 401.846H557.045L518.173 454.863Z" fill="black"/>
</g>
<g style="mix-blend-mode:multiply" opacity="0.2">
<path fill-rule="evenodd" clip-rule="evenodd" d="M523.418 835.996C522.008 836.27 520.99 837.505 520.99 838.941V922.999H585.889V827.489C585.889 825.602 584.168 824.184 582.316 824.544L523.418 835.996ZM553.717 857.218C552.011 857.218 550.375 857.9 549.169 859.112C547.962 860.325 547.284 861.969 547.284 863.684C547.284 864.534 547.451 865.376 547.775 866.161C548.1 866.946 548.575 867.66 549.174 868.26C549.773 868.861 550.484 869.337 551.266 869.661C552.048 869.985 552.886 870.151 553.732 870.149C554.577 870.149 555.413 869.982 556.194 869.657C556.974 869.332 557.684 868.855 558.281 868.255C558.878 867.655 559.352 866.942 559.675 866.158C559.999 865.373 560.165 864.533 560.165 863.684C560.165 861.969 559.487 860.325 558.281 859.112C557.075 857.9 555.438 857.218 553.732 857.218H553.717ZM553.717 852.693C555.155 852.689 556.579 852.971 557.907 853.522C559.236 854.073 560.443 854.882 561.459 855.903C562.475 856.925 563.281 858.138 563.829 859.473C564.377 860.808 564.658 862.239 564.654 863.684C564.665 865.133 564.391 866.57 563.846 867.912C563.301 869.254 562.497 870.474 561.48 871.502C560.463 872.53 559.253 873.344 557.921 873.899C556.588 874.453 555.16 874.737 553.717 874.733C552.27 874.749 550.835 874.474 549.495 873.925C548.155 873.377 546.937 872.565 545.913 871.537C544.889 870.509 544.08 869.287 543.532 867.941C542.984 866.595 542.709 865.152 542.723 863.698C542.713 862.248 542.99 860.81 543.539 859.468C544.088 858.127 544.897 856.908 545.919 855.884C546.941 854.86 548.155 854.05 549.492 853.502C550.828 852.954 552.26 852.679 553.703 852.693H553.717ZM566.964 863.698C566.964 863.098 567.201 862.523 567.623 862.098C568.046 861.674 568.618 861.436 569.215 861.436C569.813 861.436 570.385 861.674 570.807 862.098C571.23 862.523 571.467 863.098 571.467 863.698C571.463 868.428 569.592 872.963 566.264 876.307C562.936 879.652 558.424 881.532 553.717 881.536C549.01 881.536 544.495 879.657 541.167 876.312C537.838 872.966 535.968 868.429 535.968 863.698C535.943 863.387 535.982 863.073 536.084 862.778C536.185 862.483 536.346 862.212 536.557 861.982C536.768 861.752 537.024 861.569 537.309 861.443C537.594 861.318 537.901 861.253 538.212 861.253C538.523 861.253 538.831 861.318 539.116 861.443C539.4 861.569 539.656 861.752 539.867 861.982C540.078 862.212 540.239 862.483 540.341 862.778C540.442 863.073 540.482 863.387 540.456 863.698C540.464 867.229 541.864 870.613 544.35 873.108C546.836 875.603 550.204 877.007 553.717 877.011C557.228 877.003 560.593 875.598 563.075 873.103C565.558 870.608 566.956 867.227 566.964 863.698ZM538.205 854.779C538.761 854.776 539.306 854.94 539.77 855.249C540.234 855.557 540.596 855.998 540.81 856.514C541.024 857.03 541.081 857.599 540.973 858.147C540.865 858.696 540.598 859.2 540.204 859.595C539.811 859.991 539.309 860.26 538.763 860.368C538.217 860.476 537.652 860.419 537.138 860.204C536.625 859.989 536.186 859.625 535.879 859.159C535.572 858.692 535.409 858.145 535.412 857.586C535.416 856.843 535.711 856.131 536.234 855.606C536.757 855.08 537.465 854.783 538.205 854.779Z" fill="black"/>
</g>
<defs>
<linearGradient id="paint0_linear_807_0" x1="0" y1="484.575" x2="5.4082" y2="484.575" gradientUnits="userSpaceOnUse">
<stop stop-opacity="0.21"/>
<stop offset="1" stop-opacity="0"/>
</linearGradient>
<linearGradient id="paint1_linear_807_0" x1="5.4082" y1="473.037" x2="10.8164" y2="473.037" gradientUnits="userSpaceOnUse">
<stop stop-color="white" stop-opacity="0"/>
<stop offset="0.502521" stop-color="white" stop-opacity="0.4"/>
<stop offset="1" stop-color="white" stop-opacity="0.16"/>
</linearGradient>
<linearGradient id="paint2_linear_807_0" x1="10.8164" y1="473.037" x2="19.8301" y2="473.037" gradientUnits="userSpaceOnUse">
<stop stop-color="white" stop-opacity="0.16"/>
<stop offset="1" stop-color="white" stop-opacity="0"/>
</linearGradient>
<linearGradient id="paint3_linear_807_0" x1="12.6191" y1="473.038" x2="37.8574" y2="473.038" gradientUnits="userSpaceOnUse">
<stop stop-opacity="0"/>
<stop offset="0.502521" stop-opacity="0.14"/>
<stop offset="1" stop-opacity="0"/>
</linearGradient>
<linearGradient id="paint4_linear_807_0" x1="37.8574" y1="473.037" x2="46.8711" y2="473.037" gradientUnits="userSpaceOnUse">
<stop stop-color="white" stop-opacity="0"/>
<stop offset="0.502521" stop-color="white" stop-opacity="0.4"/>
<stop offset="1" stop-color="white" stop-opacity="0"/>
</linearGradient>
</defs>
</svg>
